<svg width="94" height="75" viewBox="0 0 94 75" fill="none" xmlns="http://www.w3.org/2000/svg">
<g clip-path="url(#clip0_34_408)">
<path d="M12.7705 25V33.23L2.59052 26L2.53052 25.92C3.28052 25.34 4.21552 25 5.23052 25H12.7705Z" fill="white"/>
<path d="M26.2705 50.075V50.175L6.49551 73.535V74.06H4.99051C2.66051 74.06 0.770508 72.17 0.770508 69.84V29.46C0.770508 28.015 1.46051 26.73 2.53051 25.92L2.59051 26L12.7705 33.23V45.855C12.7705 48.185 14.6605 50.075 16.9905 50.075H18.4955H23.9155H26.2705Z" fill="#ECEDED"/>
<path d="M73.9255 73.535V74.06H11.9155H6.49548V73.535L26.2705 50.175V50.075H54.2705V50.335L73.9255 73.535Z" fill="#ECEDED"/>
<g opacity="0.1">
<path d="M36.4955 49.951L33.9085 48.11L30.2335 45.505L30.0985 45.695L6.57849 73.475V74H11.9985H14.3535H16.5785V73.475L36.4955 49.951Z" fill="#414042"/>
</g>
<g opacity="0.1">
<path d="M44.3535 49.951L46.9405 48.11L50.6155 45.505L50.7505 45.695L74.2705 73.475V74H68.8505H66.4955H64.2705V73.475L44.3535 49.951Z" fill="#414042"/>
</g>
<path d="M79.2705 50.5V69.84C79.2705 72.17 77.3805 74.06 75.0505 74.06H74.3855L73.9255 73.535L54.2705 50.335V50.075H79.2705V50.5Z" fill="#ECEDED"/>
<path d="M86.0505 50.075H85.9255V49.55L62.4655 21.855L62.2655 21.57L89.8605 2L89.9505 1.875C91.0555 2.68 91.7705 3.99 91.7705 5.46V45.855C91.7705 48.185 89.8805 50.075 87.5505 50.075H86.0505Z" fill="#ECEDED"/>
<path d="M85.9255 49.55V50.075H79.6455H54.2705H26.2705H23.9155H18.4955V49.55L42.0155 21.77L42.1505 21.58L45.8255 24.185L48.9305 26.395C50.9005 27.775 53.5205 27.775 55.4755 26.395L62.2655 21.57L62.4655 21.855L85.9255 49.55Z" fill="#ECEDED"/>
<g opacity="0.1">
<path d="M48.412 26.026L45.8255 24.185L42.1505 21.58L42.0155 21.77L18.4955 49.55V50.075H23.9155H26.2705H28.4955V49.55L48.412 26.026Z" fill="#414042"/>
</g>
<path d="M42.1505 21.58L42.0155 21.77L18.4955 49.55V50.075H16.9905C14.6605 50.075 12.7705 48.185 12.7705 45.855V33.23V25V5.46002C12.7705 4.11002 13.3705 2.90502 14.3205 2.08502L42.1505 21.58Z" fill="#ECEDED"/>
<path d="M89.9506 1.875L89.8605 2L62.2656 21.57L55.4756 26.395C53.5206 27.775 50.9006 27.775 48.9306 26.395L45.8256 24.185L42.1506 21.58L14.3206 2.085C15.1006 1.41 16.1206 1 17.2306 1H87.3106C88.3006 1 89.2156 1.325 89.9506 1.875Z" fill="white"/>
<g opacity="0.1">
<path d="M56.2705 26.026L58.857 24.185L62.532 21.58L62.667 21.77L86.187 49.55V50.075H80.767H78.412H76.187V49.55L56.2705 26.026Z" fill="#414042"/>
</g>
<path d="M90.5445 1.0705C89.606 0.37 88.4875 0 87.3105 0H17.2305C16.0415 0 14.8895 0.3935 13.9465 1.1075C13.738 1.178 13.55 1.3125 13.423 1.512C13.4025 1.544 13.389 1.578 13.373 1.611C12.353 2.6325 11.7705 4.011 11.7705 5.46V24H5.2305C4.019 24 2.874 24.3905 1.927 25.1225C0.556496 26.16 -0.229004 27.741 -0.229004 29.46V69.84C-0.229004 72.7185 2.113 75.06 4.9905 75.06H75.05C77.9285 75.06 80.27 72.718 80.27 69.84V51.075H87.55C90.4285 51.075 92.77 48.733 92.77 45.855V5.46C92.7705 3.729 91.9385 2.0885 90.5445 1.0705ZM87.3105 2C87.5515 2 87.786 2.0335 88.0165 2.0815L61.6865 20.755L54.899 25.578C53.2925 26.7115 51.125 26.7115 49.511 25.58L42.7245 20.7605L16.1875 2.173C16.523 2.066 16.8725 2 17.2305 2H87.3105ZM20.2075 49.075L42.3365 22.9385L48.357 27.214C49.511 28.0225 50.86 28.4265 52.2075 28.4265C53.5575 28.4265 54.9055 28.021 56.0545 27.21L62.07 22.9355L84.212 49.075H20.2075ZM53.5865 51.075L72.2115 73.06H8.2075L26.818 51.075H53.5865ZM13.7705 5.46C13.7705 4.713 14.014 3.9935 14.4545 3.402L40.6955 21.782L17.7325 48.904C17.687 48.958 17.6485 49.0155 17.616 49.0755H16.99C15.2145 49.0755 13.7705 47.6305 13.7705 45.8555V5.46ZM11.7705 26V31.2935L4.4555 26.0985C4.7075 26.04 4.965 26 5.2305 26H11.7705ZM1.7705 69.84V29.46C1.7705 28.627 2.0645 27.847 2.594 27.2295L11.7705 33.7465V45.855C11.7705 48.7335 14.1125 51.075 16.99 51.075H24.198L5.732 72.889C5.6865 72.943 5.648 73 5.6155 73.06H4.99C3.2145 73.06 1.7705 71.615 1.7705 69.84ZM78.2705 69.84C78.2705 71.6155 76.8255 73.06 75.0505 73.06H74.8055C74.773 73 74.7345 72.9425 74.689 72.8885L56.209 51.075H78.271V69.84H78.2705ZM90.7705 45.855C90.7705 47.6305 89.3255 49.075 87.5505 49.075H86.8055C86.773 49.015 86.7345 48.957 86.6885 48.903L63.707 21.7735L89.9115 3.1895C90.4565 3.8105 90.7705 4.617 90.7705 5.46V45.855Z" fill="#8E9093"/>
<path opacity="0.4" d="M54.2705 51.075H26.2705H23.9155H18.4955H17.0025C14.125 51.075 11.7705 48.7205 11.7705 45.843V33.23V24H6.77051V47.4645C6.77051 52.496 10.8495 56.575 15.881 56.575H80.3035V51.075H54.2705Z" fill="#414042"/>
</g>
<defs>
<clipPath id="clip0_34_408">
<rect width="93.0305" height="75" fill="white"/>
</clipPath>
</defs>
</svg>
