<svg width="144" height="139" viewBox="0 0 144 139" fill="none" xmlns="http://www.w3.org/2000/svg">
<g clip-path="url(#clip0_28_51)">
<path d="M63.765 71.4284L69.1917 80.8275L74.6182 90.2266H52.912L58.3385 80.8275L63.765 71.4284Z" fill="#00BFA6"/>
<path d="M32.9287 52.9678H10.1706V75.7259H32.9287V52.9678Z" fill="#E6E6E6"/>
<path d="M49.242 38.4671C57.3061 38.4671 63.8434 31.9299 63.8434 23.8657C63.8434 15.8016 57.3061 9.26434 49.242 9.26434C41.1778 9.26434 34.6406 15.8016 34.6406 23.8657C34.6406 31.9299 41.1778 38.4671 49.242 38.4671Z" fill="#00BFA6"/>
<path d="M62.3832 48.2462C62.3832 47.7683 62.5249 47.301 62.7905 46.9036C63.0561 46.5061 63.4335 46.1964 63.8751 46.0134C64.3167 45.8305 64.8027 45.7827 65.2715 45.8759C65.7403 45.9692 66.1709 46.1993 66.5089 46.5373C66.8469 46.8753 67.0771 47.306 67.1703 47.7748C67.2636 48.2436 67.2157 48.7295 67.0328 49.1711C66.8499 49.6127 66.5401 49.9902 66.1427 50.2557C65.7453 50.5213 65.278 50.663 64.8 50.663C64.159 50.663 63.5443 50.4084 63.0911 49.9552C62.6378 49.5019 62.3832 48.8872 62.3832 48.2462ZM62.786 48.2462C62.786 48.6446 62.9041 49.034 63.1254 49.3652C63.3467 49.6964 63.6613 49.9545 64.0293 50.1069C64.3973 50.2594 64.8022 50.2992 65.1929 50.2215C65.5836 50.1438 65.9424 49.952 66.2241 49.6704C66.5058 49.3887 66.6976 49.0298 66.7753 48.6392C66.853 48.2485 66.8131 47.8435 66.6607 47.4755C66.5082 47.1075 66.2501 46.793 65.9189 46.5717C65.5877 46.3504 65.1983 46.2323 64.8 46.2323C64.2659 46.2323 63.7536 46.4445 63.3759 46.8222C62.9982 47.1998 62.786 47.7121 62.786 48.2462Z" fill="#CCCCCC"/>
<path d="M41.5759 90.2856L38.0184 86.4715L41.8325 82.914L45.39 86.7281L41.5759 90.2856ZM38.5855 86.4912L41.5956 89.7184L44.8229 86.7083L41.8128 83.4811L38.5855 86.4912Z" fill="#CCCCCC"/>
<path d="M12.1947 36.0276L9.29938 32.9234L12.4043 30.0285L15.2996 33.1327L12.1947 36.0276ZM9.76078 32.9395L12.2116 35.567L14.8382 33.117L12.3882 30.4903L9.76078 32.9395Z" fill="#CCCCCC"/>
<path d="M52.8671 40.2797C48.8838 40.2797 44.99 39.0985 41.678 36.8856C38.366 34.6726 35.7847 31.5271 34.2603 27.8471C32.736 24.167 32.3372 20.1175 33.1143 16.2108C33.8914 12.304 35.8095 8.71545 38.6261 5.89884C41.4427 3.08223 45.0313 1.16409 48.938 0.386991C52.8448 -0.39011 56.8943 0.00872626 60.5743 1.53306C64.2544 3.0574 67.3998 5.63878 69.6128 8.95076C71.8258 12.2627 73.007 16.1566 73.007 20.1399C73.007 25.4813 70.8851 30.6039 67.1082 34.3809C63.3312 38.1579 58.2086 40.2797 52.8671 40.2797ZM52.8671 0.402807C48.9635 0.402807 45.1475 1.56036 41.9018 3.7291C38.6561 5.89784 36.1263 8.98035 34.6325 12.5868C33.1386 16.1933 32.7478 20.1618 33.5093 23.9904C34.2709 27.819 36.1506 31.3358 38.9109 34.0961C41.6712 36.8564 45.188 38.7361 49.0166 39.4977C52.8452 40.2593 56.8137 39.8684 60.4202 38.3745C64.0267 36.8807 67.1092 34.3509 69.2779 31.1052C71.4466 27.8595 72.6042 24.0435 72.6042 20.1399C72.6042 14.9053 70.5248 9.88508 66.8233 6.18366C63.1219 2.48224 58.1017 0.402807 52.8671 0.402807Z" fill="#3F3D56"/>
<path d="M40.4692 35.8095L35.2665 46.6373L35.6296 46.8117L40.8322 35.984L40.4692 35.8095Z" fill="#3F3D56"/>
<path d="M39.2681 61.0475L39.0764 61.4018L61.9931 73.8042L62.1848 73.45L39.2681 61.0475Z" fill="#3F3D56"/>
<path d="M39.3734 75.9273H9.96924V46.5231H39.3734V75.9273ZM10.372 75.5245H38.9706V46.9259H10.372V75.5245Z" fill="#3F3D56"/>
<path d="M82.9782 90.428H52.5632L67.7706 64.0879L82.9782 90.428ZM53.2609 90.0252H82.2804L67.7706 64.8935L53.2609 90.0252Z" fill="#3F3D56"/>
<path d="M144 138.159H0V138.562H144V138.159Z" fill="#E6E6E6"/>
<path d="M41.5489 125.598C42.5737 125.959 43.674 126.049 44.7438 125.86C45.8135 125.672 46.8167 125.211 47.6568 124.523C49.796 122.727 50.4669 119.77 51.0125 117.031L52.6267 108.929L49.2472 111.256C46.8167 112.929 44.3317 114.656 42.649 117.08C40.9663 119.504 40.2322 122.813 41.5838 125.436" fill="#E6E6E6"/>
<path d="M42.0708 135.971C41.6454 132.872 41.2078 129.733 41.5069 126.601C41.7719 123.819 42.6206 121.103 44.3484 118.875C45.2655 117.694 46.3815 116.683 47.6461 115.886C47.9758 115.678 48.2793 116.201 47.951 116.408C45.7628 117.791 44.0703 119.833 43.1174 122.24C42.0651 124.916 41.8962 127.834 42.0774 130.677C42.187 132.396 42.4198 134.104 42.6536 135.81C42.6721 135.887 42.6606 135.969 42.6214 136.038C42.5822 136.107 42.5183 136.158 42.4426 136.182C42.3653 136.203 42.283 136.192 42.2134 136.153C42.1438 136.113 42.0927 136.048 42.071 135.971L42.0708 135.971Z" fill="#F2F2F2"/>
<path d="M70.2265 131.703C70.724 132.291 71.3646 132.74 72.0863 133.008C72.8081 133.277 73.5869 133.355 74.3475 133.235C76.2997 132.904 77.7713 131.335 79.0862 129.856L82.9782 125.48L80.0781 125.691C77.9918 125.843 75.8528 126.008 73.9556 126.887C72.0584 127.766 70.4218 129.526 70.3084 131.615" fill="#E6E6E6"/>
<path d="M66.8865 137.805C67.5713 136.159 68.2602 134.489 69.3099 133.035C70.242 131.744 71.4425 130.653 72.9351 130.055C73.7263 129.739 74.5665 129.563 75.4179 129.536C75.6395 129.529 75.6395 129.873 75.4179 129.881C73.9435 129.93 72.5228 130.446 71.3606 131.355C70.0716 132.367 69.1476 133.753 68.4171 135.203C67.9755 136.08 67.5972 136.987 67.2208 137.893C67.2077 137.936 67.1785 137.973 67.1394 137.996C67.1003 138.018 67.054 138.025 67.01 138.015C66.966 138.003 66.9285 137.974 66.9057 137.935C66.8829 137.895 66.8766 137.848 66.8881 137.804L66.8865 137.805Z" fill="#F2F2F2"/>
<path d="M45.1324 130.999C45.5719 131.667 46.176 132.211 46.8865 132.577C47.5971 132.944 48.3902 133.122 49.1894 133.093C51.2437 132.996 52.9555 131.563 54.4964 130.202L59.0551 126.177L56.0381 126.032C53.8685 125.928 51.6428 125.831 49.5763 126.501C47.5097 127.171 45.6039 128.78 45.2261 130.919" fill="#E6E6E6"/>
<path d="M40.8684 137.753C42.9162 134.129 45.2913 130.102 49.5356 128.815C50.7156 128.459 51.9529 128.331 53.1809 128.439C53.568 128.472 53.4713 129.069 53.085 129.035C51.0266 128.865 48.9721 129.408 47.2675 130.575C45.6271 131.691 44.3498 133.244 43.2689 134.89C42.6067 135.898 42.0136 136.949 41.4204 137.999C41.2309 138.334 40.6767 138.092 40.8684 137.753Z" fill="#F2F2F2"/>
<path d="M4.72945 131.335C5.47106 131.596 6.2673 131.661 7.04148 131.524C7.81565 131.388 8.54165 131.055 9.14955 130.556C10.6977 129.257 11.1837 127.116 11.578 125.134L12.7461 119.271L10.3005 120.955C8.54173 122.166 6.74344 123.416 5.52558 125.17C4.30773 126.924 3.77623 129.319 4.75463 131.217" fill="#E6E6E6"/>
<path d="M4.9385 138.433C4.69098 136.63 4.43641 134.804 4.61002 132.982C4.76429 131.363 5.25792 129.782 6.2633 128.486C6.79691 127.8 7.44622 127.211 8.18202 126.748C8.37396 126.627 8.55038 126.931 8.35945 127.051C7.08636 127.856 6.10166 129.044 5.54733 130.444C4.93508 132.001 4.83679 133.699 4.94313 135.353C5.00697 136.353 5.14211 137.347 5.27846 138.34C5.28944 138.385 5.28283 138.432 5.25999 138.472C5.23715 138.512 5.19981 138.542 5.15561 138.556C5.11064 138.568 5.0627 138.562 5.0222 138.539C4.9817 138.516 4.95191 138.478 4.9393 138.433L4.9385 138.433Z" fill="#F2F2F2"/>
<path d="M23.156 138.451C23.1028 138.365 21.8499 136.273 21.4157 131.929C21.0174 127.943 21.2735 121.225 24.7573 111.855C31.3576 94.1027 23.2364 79.7792 23.1534 79.6366L23.554 79.4042C23.5741 79.4405 25.6707 83.0922 26.9085 88.9074C28.5442 96.617 27.9485 104.633 25.1913 112.016C18.6024 129.738 23.501 138.127 23.5512 138.21L23.156 138.451Z" fill="#3F3D56"/>
<path d="M30.0682 89.708C31.7305 89.708 33.0781 88.3604 33.0781 86.6981C33.0781 85.0358 31.7305 83.6882 30.0682 83.6882C28.4059 83.6882 27.0583 85.0358 27.0583 86.6981C27.0583 88.3604 28.4059 89.708 30.0682 89.708Z" fill="#00BFA6"/>
<path d="M21.2697 113.093C22.932 113.093 24.2796 111.746 24.2796 110.083C24.2796 108.421 22.932 107.073 21.2697 107.073C19.6074 107.073 18.2598 108.421 18.2598 110.083C18.2598 111.746 19.6074 113.093 21.2697 113.093Z" fill="#00BFA6"/>
<path d="M24.6941 138.361C24.6941 138.361 22.1256 132.039 29.8307 127.298L24.6941 138.361Z" fill="#E6E6E6"/>
<path d="M21.5354 138.246C21.5354 138.246 20.7519 133.74 14.6878 133.779L21.5354 138.246Z" fill="#E6E6E6"/>
<path d="M28.5482 101.578C28.5482 101.1 28.69 100.633 28.9556 100.236C29.2211 99.8381 29.5986 99.5283 30.0402 99.3454C30.4818 99.1625 30.9677 99.1146 31.4365 99.2079C31.9053 99.3011 32.336 99.5313 32.674 99.8693C33.012 100.207 33.2421 100.638 33.3354 101.107C33.4286 101.576 33.3808 102.061 33.1978 102.503C33.0149 102.945 32.7052 103.322 32.3077 103.588C31.9103 103.853 31.443 103.995 30.965 103.995C30.3241 103.995 29.7093 103.74 29.2561 103.287C28.8029 102.834 28.5482 102.219 28.5482 101.578ZM28.951 101.578C28.951 101.977 29.0692 102.366 29.2905 102.697C29.5118 103.028 29.8263 103.286 30.1943 103.439C30.5623 103.591 30.9673 103.631 31.3579 103.553C31.7486 103.476 32.1075 103.284 32.3891 103.002C32.6708 102.721 32.8626 102.362 32.9403 101.971C33.018 101.58 32.9781 101.176 32.8257 100.807C32.6733 100.439 32.4151 100.125 32.0839 99.9036C31.7527 99.6823 31.3634 99.5642 30.965 99.5642C30.4309 99.5642 29.9186 99.7764 29.5409 100.154C29.1632 100.532 28.951 101.044 28.951 101.578Z" fill="#CCCCCC"/>
<path d="M21.2697 94.1184C21.2697 93.6404 21.4115 93.1732 21.677 92.7757C21.9426 92.3783 22.32 92.0685 22.7616 91.8856C23.2032 91.7027 23.6892 91.6548 24.158 91.7481C24.6268 91.8413 25.0574 92.0715 25.3954 92.4095C25.7334 92.7475 25.9636 93.1781 26.0568 93.6469C26.1501 94.1157 26.1022 94.6017 25.9193 95.0433C25.7364 95.4849 25.4266 95.8623 25.0292 96.1279C24.6318 96.3935 24.1645 96.5352 23.6865 96.5352C23.0455 96.5352 22.4308 96.2806 21.9776 95.8273C21.5243 95.3741 21.2697 94.7594 21.2697 94.1184ZM21.6725 94.1184C21.6725 94.5167 21.7906 94.9061 22.0119 95.2373C22.2332 95.5685 22.5478 95.8267 22.9158 95.9791C23.2838 96.1315 23.6887 96.1714 24.0794 96.0937C24.4701 96.016 24.8289 95.8242 25.1106 95.5425C25.3923 95.2609 25.5841 94.902 25.6618 94.5113C25.7395 94.1207 25.6996 93.7157 25.5472 93.3477C25.3947 92.9797 25.1366 92.6651 24.8054 92.4438C24.4742 92.2225 24.0848 92.1044 23.6865 92.1044C23.1524 92.1044 22.6401 92.3166 22.2624 92.6943C21.8847 93.072 21.6725 93.5843 21.6725 94.1184Z" fill="#CCCCCC"/>
<path d="M128.475 88.3369C128.174 88.5527 127.83 88.6994 127.466 88.7663C127.102 88.8333 126.728 88.8188 126.37 88.7239C125.728 88.5532 125.18 88.1344 124.847 87.5597C124.513 86.985 124.422 86.3014 124.593 85.6594C124.601 85.6267 124.611 85.5943 124.621 85.562C124.658 85.4445 124.704 85.3301 124.758 85.2196L119.834 63.1097C119.758 62.8573 119.733 62.5926 119.76 62.3306C119.787 62.0686 119.866 61.8145 119.991 61.5828C120.116 61.351 120.285 61.1462 120.49 60.98C120.694 60.8138 120.929 60.6894 121.181 60.6141C121.434 60.5387 121.699 60.5137 121.961 60.5407C122.223 60.5676 122.477 60.6459 122.708 60.771C122.94 60.8962 123.145 61.0657 123.311 61.27C123.477 61.4743 123.602 61.7094 123.677 61.9617C123.681 61.9755 123.685 61.9893 123.689 62.0032L128.338 84.1796C128.687 84.3968 128.977 84.6968 129.183 85.053C129.389 85.4091 129.503 85.8105 129.517 86.2216C129.531 86.6327 129.443 87.0407 129.261 87.4097C129.079 87.7787 128.809 88.0972 128.475 88.3371L128.475 88.3369Z" fill="#9F616A"/>
<path d="M135.015 135.772H132.344L131.073 125.469H135.015L135.015 135.772Z" fill="#A0616A"/>
<path d="M135.696 138.361H127.084V138.252C127.084 137.363 127.437 136.51 128.065 135.882C128.694 135.253 129.546 134.9 130.435 134.9H135.696V138.361Z" fill="#2F2E41"/>
<path d="M108.237 135.687L105.695 134.865L107.657 124.672L111.408 125.885L108.237 135.687Z" fill="#A0616A"/>
<path d="M108.088 138.361L99.8943 135.71L99.9278 135.607C100.201 134.761 100.8 134.058 101.591 133.654C102.383 133.249 103.303 133.175 104.149 133.449L109.154 135.068L108.088 138.361Z" fill="#2F2E41"/>
<path d="M120.219 57.1432C122.708 57.1432 124.726 55.1257 124.726 52.6369C124.726 50.1482 122.708 48.1306 120.219 48.1306C117.731 48.1306 115.713 50.1482 115.713 52.6369C115.713 55.1257 117.731 57.1432 120.219 57.1432Z" fill="#9F616A"/>
<path d="M126.277 70.1544C126.904 67.8268 124.034 60.5275 123.8 59.6011C122.681 59.3429 120.089 59.838 118.495 59.5099C116.23 61.403 114.427 64.1074 113.182 65.3907C111.887 66.725 111.052 67.6295 112.39 70.7523C114.012 74.5376 113.652 78.503 113.652 78.503L114.733 88.0561C114.733 88.0561 110.227 100.674 110.587 109.145L106.441 129.874C106.441 129.874 107.703 132.037 110.227 130.955C110.227 130.955 116.175 120.321 115.634 112.57L122.123 98.1494C122.123 98.1494 126.63 111.848 127.891 113.11L131.136 132.577C131.136 132.577 134.2 133.478 135.642 132.577C135.642 132.577 136.183 113.831 133.119 110.767C133.119 110.767 130.054 97.7889 130.775 94.3641C131.496 90.9393 131.677 85.7122 126.269 81.0257C126.269 81.0257 126.323 81.0505 124.647 77.9614L126.277 70.1544Z" fill="#2F2E41"/>
<path d="M122.57 45.6718C122.317 45.6723 122.065 45.6974 121.818 45.7467C121.37 45.5293 120.878 45.4161 120.381 45.4156H120.25C117.735 45.4156 115.697 47.6914 115.697 50.4979H116.54L116.676 49.4621L116.875 50.4979H117.577C117.359 51.329 117.249 52.1849 117.251 53.0442V58.2173H118.525L119.262 56.3006L119.078 58.2173H127.266L127.937 56.4748L127.769 58.2173H128.691V54.1553C128.691 49.4699 125.951 45.6718 122.57 45.6718Z" fill="#2F2E41"/>
<path d="M113.175 90.8972C112.809 90.9521 112.435 90.9253 112.081 90.8188C111.726 90.7122 111.4 90.5284 111.125 90.2808C110.88 90.0605 110.682 89.7942 110.541 89.4972C110.399 89.2001 110.318 88.8782 110.301 88.5496C110.284 88.2211 110.332 87.8925 110.442 87.5825C110.552 87.2725 110.722 86.9872 110.942 86.7429C110.965 86.7175 110.988 86.6927 111.012 86.6683C111.099 86.5807 111.192 86.4999 111.291 86.4266L117.001 64.5072C117.049 64.2482 117.148 64.0012 117.291 63.7803C117.434 63.5594 117.62 63.3689 117.837 63.2197C118.054 63.0705 118.298 62.9655 118.556 62.9107C118.813 62.8559 119.079 62.8524 119.338 62.9003C119.597 62.9483 119.844 63.0468 120.065 63.1902C120.286 63.3336 120.477 63.5191 120.626 63.7362C120.775 63.9532 120.88 64.1975 120.935 64.4551C120.99 64.7127 120.993 64.9786 120.945 65.2375C120.942 65.2526 120.939 65.2676 120.936 65.2826L114.949 87.1355C115.161 87.4882 115.282 87.8875 115.303 88.2983C115.323 88.709 115.242 89.1184 115.067 89.4903C114.891 89.8623 114.627 90.1852 114.297 90.4306C113.967 90.676 113.581 90.8363 113.175 90.8972Z" fill="#9F616A"/>
</g>
<defs>
<clipPath id="clip0_28_51">
<rect width="144" height="138.562" fill="white"/>
</clipPath>
</defs>
</svg>
