<svg width="114" height="76" viewBox="0 0 114 76" fill="none" xmlns="http://www.w3.org/2000/svg">
<path d="M113 30.992H1V66.992H113V30.992Z" fill="white"/>
<path d="M106 0.992004H8C3.589 0.992004 0 4.581 0 8.992V67.992C0 72.403 3.589 75.992 8 75.992H106C110.411 75.992 114 72.403 114 67.992V8.992C114 4.581 110.411 0.992004 106 0.992004ZM112 31.992V65.992H2V31.992H112Z" fill="#FB3556"/>
<path d="M46 11.995C45.447 11.995 45 12.442 45 12.995V15.995H42V12.995C42 12.442 41.553 11.995 41 11.995C40.447 11.995 40 12.442 40 12.995V20.995C40 21.548 40.447 21.995 41 21.995C41.553 21.995 42 21.548 42 20.995V17.995H45V20.995C45 21.548 45.447 21.995 46 21.995C46.553 21.995 47 21.548 47 20.995V12.995C47 12.443 46.553 11.995 46 11.995Z" fill="white"/>
<path d="M53 13.995C53.553 13.995 54 13.548 54 12.995C54 12.442 53.553 11.995 53 11.995H50C49.447 11.995 49 12.442 49 12.995V20.995C49 21.548 49.447 21.995 50 21.995H53C53.553 21.995 54 21.548 54 20.995C54 20.442 53.553 19.995 53 19.995H51V17.995H53C53.553 17.995 54 17.548 54 16.995C54 16.442 53.553 15.995 53 15.995H51V13.995H53Z" fill="white"/>
<path d="M60 19.995H58V12.995C58 12.442 57.553 11.995 57 11.995C56.447 11.995 56 12.442 56 12.995V20.995C56 21.548 56.447 21.995 57 21.995H60C60.553 21.995 61 21.548 61 20.995C61 20.442 60.553 19.995 60 19.995Z" fill="white"/>
<path d="M66 19.995H64V12.995C64 12.442 63.553 11.995 63 11.995C62.447 11.995 62 12.442 62 12.995V20.995C62 21.548 62.447 21.995 63 21.995H66C66.553 21.995 67 21.548 67 20.995C67 20.442 66.553 19.995 66 19.995Z" fill="white"/>
<path d="M71 11.995C69.346 11.995 68 13.341 68 14.995V18.995C68 20.649 69.346 21.995 71 21.995C72.654 21.995 74 20.649 74 18.995V14.995C74 13.341 72.654 11.995 71 11.995ZM72 18.995C72 19.547 71.552 19.995 71 19.995C70.448 19.995 70 19.547 70 18.995V14.995C70 14.443 70.448 13.995 71 13.995C71.552 13.995 72 14.443 72 14.995V18.995Z" fill="white"/>
<path opacity="0.1" d="M14 67.995V8.995C14 4.584 17.589 0.994995 22 0.994995H8C3.589 0.994995 0 4.584 0 8.995V67.995C0 72.406 3.589 75.995 8 75.995H22C17.589 75.995 14 72.406 14 67.995Z" fill="#434244"/>
<path d="M90.262 58.203C86.92 55.734 82.329 50.718 78.165 49.88C74.98 49.239 71.884 51.942 69.31 53.996C67.735 51.744 66.104 49.563 64.168 47.582C62.919 46.304 60.814 47.303 60.754 48.996C60.701 50.494 60.562 51.942 60.323 53.37C58.965 51.212 57.801 48.971 56.928 46.465C56.231 44.463 52.829 44.612 53 46.997C53.153 49.14 53.245 51.263 53.072 53.409C52.721 57.749 52.159 55.227 50.233 53.067C47.915 50.467 46.206 47.478 45.038 44.256C44.686 42.985 44.308 41.72 43.928 40.465C43.181 37.994 39.511 39.017 40.071 41.528C40.372 42.876 40.832 44.442 41.428 46.08C42.488 49.889 43.24 53.844 42.448 57.615C38.112 50.987 34.497 44.027 31.927 36.465C31.222 34.389 27.995 34.653 27.999 36.997C28.009 43.975 28.02 50.953 28.03 57.931C28.034 60.505 32.034 60.509 32.03 57.931C32.025 54.363 32.019 50.795 32.014 47.226C34.621 52.731 37.739 57.971 41.272 63.007C42.074 64.15 43.992 64.449 44.726 63.007C45.943 60.615 46.512 58.174 46.659 55.713C48.214 57.602 50 59.098 51.991 59.829C55.209 61.01 56.52 58.632 56.998 55.55C57.771 56.781 58.597 57.991 59.477 59.195C60.487 60.577 62.571 60.447 63.132 58.717C63.653 57.112 64.028 55.503 64.29 53.874C65.272 55.164 66.198 56.498 67.123 57.85C67.695 58.686 68.922 59.221 69.859 58.567C72.634 56.631 75.55 53.299 78.903 54.724C82.115 56.089 85.413 59.569 88.242 61.659C90.315 63.188 92.312 59.718 90.262 58.203Z" fill="#434244"/>
</svg>
